<svg xmlns="http://www.w3.org/2000/svg" viewBox="0 0 1024 1024" fill="none" aria-label="Ministranci app icon">
  <rect width="1024" height="1024" rx="220" fill="#4f46e5" />
  <g transform="translate(0 24)" stroke="#ffffff" stroke-width="60" stroke-linecap="butt" stroke-linejoin="miter">
    <polyline points="236 620 390 362 512 548 634 362 788 620" />
  </g>
  <g transform="translate(0 24)" stroke="#ffffff" stroke-width="46" stroke-linecap="butt" stroke-linejoin="miter">
    <line x1="512" y1="252" x2="512" y2="548" />
    <line x1="424" y1="280" x2="600" y2="280" />
    <line x1="512" y1="182" x2="512" y2="280" />
  </g>
  <path fill="#ffffff" d="M236 692 C 362 674, 460 674, 512 728 C 564 674, 662 674, 788 692 L788 750 C662 732, 585 732, 537 760 C527 766, 519 775, 512 784 C505 775, 497 766, 487 760 C439 732, 362 732, 236 750 Z" />
</svg>
